<svg width="1439" height="236" viewBox="0 0 1439 236" fill="none" xmlns="http://www.w3.org/2000/svg">
<path d="M120.913 149.12C155.112 6.10222 53.6234 -18.7922 -1 11.2816V236H1439V126.565C1404.17 105.847 1380.95 141.045 1374.09 160.815C1329.12 118.712 1279.88 162.208 1260.88 189.219C1255.18 168.501 1234.23 166.663 1224.46 168.334C1261.67 43.0262 1148.47 43.0262 1119.97 78.1124C1104.93 0.421623 1056.64 38.8493 1047.93 38.8493C990.296 -25.9765 932.612 14.6232 910.974 43.0262C862.683 5.01231 848.115 42.7728 846.85 41.7692C720.979 -9.18923 694.855 128.235 731.27 173.346C712.904 172.01 699.341 191.725 694.855 201.749C642.606 111.528 576.108 161.651 569.775 161.651C427.913 62.073 340.726 167.498 314.866 232.658C304.733 223.302 281.617 224.862 271.325 226.811C283.992 149.12 207.202 149.12 179.495 185.877C166.195 160.481 134.899 150.791 120.913 149.12Z" fill="white"/>
</svg>
