<svg width="1440" height="261" viewBox="0 0 1440 261" fill="none" xmlns="http://www.w3.org/2000/svg">
<path d="M20.5488 211.166C20.5488 211.166 16 231.5 0 237.266V0H1440V260.992C1412.18 261.625 1387.31 223.821 1378.35 204.839L1289.84 215.912C1250 243.118 1220.55 227.248 1210.8 215.912C1138.09 237.424 1089.88 202.467 1073.28 181.904C1027.13 202.15 987.925 222.239 967.377 142.359C957.102 125.751 897.827 67.2253 801.405 128.914C795.715 139.67 762.151 160.813 746.081 170.04C731.539 212.432 702.086 195.612 689.177 181.904C636.698 235.684 580.373 193.24 558.771 165.295C522.099 227.933 468.145 202.467 445.752 181.904C403.39 223.662 356.97 208.794 339.056 196.14C311.868 234.735 241.317 243.329 209.44 242.802C177.194 268.11 162.81 242.802 159.649 226.984L123.293 196.14C91.6795 269.534 41.6246 236.738 20.5488 211.166Z" fill="white" fill-opacity="0.57"/>
</svg>
