<svg width="1440" height="331" viewBox="0 0 1440 331" fill="none" xmlns="http://www.w3.org/2000/svg">
<path d="M108.455 59.5324C108.455 59.5324 61.7482 11.1127 0 46.8321V331H1440V0C1390.92 30.9568 1398.31 81.2286 1404.38 109.54C1386.01 101.919 1360.84 116.948 1350.54 125.415C1289.75 12.3827 1141.5 82.2854 1141.5 195L943 125.415C928.434 101.284 876.35 87.3141 853.392 92.8705C794.81 38.8945 744.937 96.0456 752.853 136.528C733.854 127.637 697.966 145.524 682.397 155.578C637.273 116.683 590.566 150.815 595.316 195.266C582.016 186.376 569.192 188.387 564.442 190.504C565.075 175.898 553.623 169.072 547.817 167.484C581.858 4.7626 422.738 26.1942 373.656 87.3141C316.024 29.5281 247.785 89.1663 220.869 126.209C217.069 118.588 197.647 111.921 188.411 109.54C190.311 24.448 135.899 40.7466 108.455 59.5324Z" fill="white" fill-opacity="0.65"/>
</svg>