<svg width="1440" height="226" viewBox="0 0 1440 226" fill="none" xmlns="http://www.w3.org/2000/svg">
<path d="M31.6136 138.878C31.6136 138.878 16.5 161.5 0 161.5V0H1440V138.878C1422.93 157.816 1390.21 169.915 1375.98 173.598C1375.98 248.561 1296.16 230.412 1279.56 197.271C1230.24 208.002 1181.03 185.96 1162.59 173.598C1071.54 190.642 1036.66 129.672 1030.6 97.057C1010.85 97.057 992.667 105.737 992.667 105.737C954.099 173.914 912.843 140.456 897.036 115.206C793.502 220.154 733.436 97.057 733.436 97.057C705.616 110.313 668.628 83.6425 653.611 68.65C653.611 68.65 622.788 86.799 580.11 97.057C545.967 169.021 484.215 149.136 457.607 130.198C427.574 173.598 406.235 130.198 406.235 115.206C403.074 115.206 347.75 153.871 325.62 130.198C301.594 155.449 250.274 146.506 227.618 138.878C218.924 182.278 155.697 173.598 155.697 115.206C148.321 130.987 122.5 121 113.5 116.5C93.2673 169.526 51.1087 153.082 31.6136 138.878Z" fill="white"/>
</svg>
