<svg width="31" height="24" viewBox="0 0 31 24" fill="none" xmlns="http://www.w3.org/2000/svg">
<path d="M30.2718 2.84657C29.1586 3.3276 27.9627 3.65262 26.7055 3.79953C28.0027 3.04261 28.9732 1.85131 29.4359 0.447904C28.2171 1.15384 26.8832 1.65074 25.4922 1.917C24.5568 0.943063 23.3179 0.297518 21.9677 0.0805956C20.6175 -0.136327 19.2316 0.0875087 18.0253 0.717351C16.8189 1.34719 15.8595 2.3478 15.2961 3.56383C14.7326 4.77986 14.5967 6.14327 14.9092 7.44238C12.4397 7.32147 10.0239 6.69554 7.81849 5.60523C5.61309 4.51492 3.66744 2.98459 2.1078 1.11355C1.57452 2.01061 1.26788 3.05068 1.26788 4.15836C1.26728 5.15552 1.5191 6.1374 2.00098 7.0169C2.48286 7.8964 3.17991 8.64631 4.03028 9.2001C3.04408 9.1695 2.07963 8.90964 1.21722 8.44215V8.52015C1.21712 9.91871 1.71321 11.2742 2.62133 12.3567C3.52944 13.4392 4.79364 14.1819 6.19941 14.459C5.28454 14.7004 4.32537 14.736 3.39434 14.563C3.79097 15.7663 4.56356 16.8186 5.60396 17.5726C6.64435 18.3265 7.90047 18.7443 9.19646 18.7674C6.99644 20.4516 4.27944 21.3651 1.48253 21.3611C0.987081 21.3613 0.492055 21.333 0 21.2766C2.83903 23.0567 6.14387 24.0014 9.51909 23.9977C20.9447 23.9977 27.1907 14.7697 27.1907 6.76633C27.1907 6.50631 27.1841 6.2437 27.1721 5.98368C28.387 5.12689 29.4357 4.06591 30.2691 2.85047L30.2718 2.84657V2.84657Z" fill="white"/>
</svg>
